<?xml version="1.0" encoding="UTF-8"?>
<svg width="230px" height="40px" viewBox="0 0 230 40" version="1.1" xmlns="http://www.w3.org/2000/svg" xmlns:xlink="http://www.w3.org/1999/xlink">
    <!-- Generator: Sketch 45.1 (43504) - http://www.bohemiancoding.com/sketch -->
    <title>Nitro_</title>
    <desc>Created with Sketch.</desc>
    <defs></defs>
    <g id="nitro-translator" stroke="none" stroke-width="1" fill="none" fill-rule="evenodd">
        <g id="translator-profile" transform="translate(-596.000000, -15.000000)" fill="#FFFFFF">
            <g id="header">
                <g id="logo" transform="translate(596.000000, 15.000000)">
                    <path d="M3.20883988,6.43107385 L3.08446624,6.43107385 L3.23371461,9.45239656 L3.23371461,17.6859315 L0,17.6859315 L0,0.273622006 L2.98496733,0.273622006 L9.96137176,11.8767258 L10.0857454,11.8767258 L9.86187284,9.78724866 L9.86187284,0.273622006 L13.0955875,0.273622006 L13.0955875,17.6859315 L10.1106201,17.6859315 L3.20883988,6.43107385 Z M16.5971838,14.9497114 L20.9751358,14.9497114 L20.9751358,7.98478762 L16.5971838,7.98478762 L16.5971838,5.24856756 L24.2088505,5.24856756 L24.2088505,14.9497114 L28.8106751,14.9497114 L28.8106751,17.6859315 L16.5971838,17.6859315 L16.5971838,14.9497114 Z M20.3781424,1.86560458 C20.3781424,1.35152431 20.5688467,0.912075176 20.9502611,0.547244011 C21.3316755,0.182412846 21.8623311,0 22.5422437,0 C23.2387396,0 23.7942696,0.182412846 24.2088505,0.547244011 C24.6234313,0.912075176 24.8307186,1.35152431 24.8307186,1.86560458 C24.8307186,2.3962681 24.6234313,2.83157148 24.2088505,3.17152779 C23.7942696,3.5114841 23.2387396,3.68145971 22.5422437,3.68145971 C21.8623311,3.68145971 21.3316755,3.5114841 20.9502611,3.17152779 C20.5688467,2.83157148 20.3781424,2.3962681 20.3781424,1.86560458 Z M31.6674419,7.98478762 L29.2048439,7.98478762 L29.2048439,5.24856756 L31.6674419,5.24856756 L31.6674419,2.41284859 L34.9011565,1.49248367 L34.9011565,5.24856756 L41.4183352,5.24856756 L41.4183352,7.98478762 L34.9011565,7.98478762 L34.9011565,11.5418737 C34.9011565,12.8187828 35.1416098,13.7432842 35.6225236,14.3154058 C36.1034374,14.8875274 36.7750484,15.1735839 37.6373766,15.1735839 C38.0851239,15.1735839 38.4914071,15.1196892 38.8562382,15.0118982 C39.2210694,14.9041072 39.5485834,14.7672976 39.83879,14.6014652 C40.1289966,14.4356329 40.3943244,14.25322 40.6347813,14.0542212 C40.8752382,13.8552224 41.0949627,13.6728095 41.2939616,13.5069772 L42.7864452,15.7457027 C42.5045302,16.0773674 42.1521418,16.3800069 41.7292693,16.6536302 C41.3063968,16.9272536 40.8503647,17.1677069 40.3611593,17.3749974 C39.8719538,17.5822878 39.362027,17.7439719 38.8313635,17.8600545 C38.3007,17.9761372 37.7783359,18.0341776 37.2642557,18.0341776 C35.4069334,18.0341776 34.0098168,17.5159593 33.072864,16.4795072 C32.1359113,15.443055 31.6674419,13.7971936 31.6674419,11.5418737 L31.6674419,7.98478762 Z M45.3165604,14.9497114 L48.4010267,14.9497114 L48.4010267,7.98478762 L45.3165604,7.98478762 L45.3165604,5.24856756 L50.9133742,5.24856756 L51.2864951,6.8902996 L51.385994,6.8902996 C51.8503246,6.34305285 52.3809801,5.88702073 52.9779766,5.52218957 C53.574973,5.1573584 54.2714585,4.97494556 55.0674537,4.97494556 C56.0624478,4.97494556 56.8459939,5.33977125 57.4181155,6.06943358 C57.9902371,6.79909591 58.2762936,8.01794538 58.2762936,9.72601856 L55.3659505,9.72601856 C55.3659505,9.12902211 55.2788898,8.69371873 55.1047658,8.42009535 C54.9306418,8.14647198 54.6528768,8.00966235 54.2714624,8.00966235 C53.608133,8.00966235 53.0733317,8.17549221 52.6670425,8.5071569 C52.2607532,8.8388216 51.9166563,9.22023027 51.6347413,9.65139438 L51.6347413,14.9497114 L57.0325572,14.9497114 L57.0325572,17.6859315 L45.3165604,17.6859315 L45.3165604,14.9497114 Z M60.7815341,11.4672495 C60.7815341,10.4225057 60.9390725,9.4938585 61.2541539,8.68128 C61.5692354,7.86870149 62.016976,7.18050757 62.5973892,6.61667759 C63.1778024,6.05284761 63.8701421,5.62583572 64.674429,5.33562911 C65.4787159,5.0454225 66.3783429,4.90032137 67.373337,4.90032137 C68.4180807,4.90032137 69.3508737,5.05785974 70.1717438,5.3729412 C70.9926139,5.68802266 71.6849536,6.13161754 72.2487836,6.70373914 C72.8126136,7.27586074 73.2396255,7.9682004 73.5298321,8.78077891 C73.8200387,9.59335741 73.9651398,10.4888387 73.9651398,11.4672495 C73.9651398,12.5119933 73.8076014,13.4406405 73.49252,14.253219 C73.1774385,15.0657975 72.7296979,15.7539914 72.1492847,16.3178214 C71.5688715,16.8816514 70.8765318,17.3086633 70.0722449,17.5988699 C69.267958,17.8890765 68.368331,18.0341776 67.373337,18.0341776 C66.3285932,18.0341776 65.3958002,17.8766393 64.5749301,17.5615578 C63.75406,17.2464764 63.0617203,16.8028815 62.4978903,16.2307599 C61.9340603,15.6586383 61.5070484,14.9662986 61.2168418,14.1537201 C60.9266352,13.3411416 60.7815341,12.4456604 60.7815341,11.4672495 Z M64.1147476,11.4672495 C64.1147476,12.0144963 64.189371,12.5202773 64.3386202,12.9846079 C64.4878693,13.4489385 64.7034481,13.8552216 64.9853631,14.2034696 C65.2672781,14.5517175 65.6072293,14.821191 66.0052269,15.0118982 C66.4032246,15.2026054 66.8592567,15.2979576 67.373337,15.2979576 C68.3351646,15.2979576 69.1187107,14.9911723 69.7239987,14.3775927 C70.3292868,13.764013 70.6319263,12.7939083 70.6319263,11.4672495 C70.6319263,10.3230063 70.3500155,9.39850484 69.7861855,8.69371736 C69.2223556,7.98892988 68.4180807,7.63654143 67.373337,7.63654143 C66.9090064,7.63654143 66.4778487,7.70701912 66.0798511,7.84797661 C65.6818535,7.98893411 65.3377565,8.21695017 65.0475499,8.53203163 C64.7573433,8.84711309 64.5293272,9.24510475 64.3634949,9.72601856 C64.1976625,10.2069324 64.1147476,10.7873369 64.1147476,11.4672495 Z M77.41562,20.5962746 L88.4599991,20.5962746 L88.4599991,23.2578705 L77.41562,23.2578705 L77.41562,20.5962746 Z" id="Nitro_"></path>
                </g>
            </g>
        </g>
    </g>
</svg>